<svg height="512" viewBox="0 0 34 56" width="512" xmlns="http://www.w3.org/2000/svg"><g id="037---Employee-Access-Card"><path id="Shape" d="m17 14c2.209139 0 4-1.790861 4-4v-5h-8v5c0 2.209139 1.790861 4 4 4zm0-5c.5522847 0 1 .44771525 1 1 0 .5522847-.4477153 1-1 1s-1-.4477153-1-1c0-.55228475.4477153-1 1-1z"/><circle id="Oval" cx="17" cy="24" r="4"/><path id="Shape" d="m21 1c0-.55228475-.4477153-1-1-1h-6c-.5522847 0-1 .44771525-1 1v2h8z"/><path id="Shape" d="m22.719 37.014c.8319467-2.9149499-.1651431-6.0445507-2.53-7.941-1.9465377 1.2366171-4.4324623 1.2366171-6.379 0-.4921554.3590417-.9273781.7902189-1.291 1.279-1.4272801 1.9068486-1.8849514 4.3696968-1.238 6.662 3.6992854 1.3149674 7.7387146 1.3149674 11.438 0z"/><path id="Rectangle-path" d="m4 44h26v3h-26z"/><path id="Shape" d="m31 8h-8v2c0 3.3137085-2.6862915 6-6 6s-6-2.6862915-6-6v-2h-8c-1.65685425 0-3 1.34314575-3 3v42c0 1.6568542 1.34314575 3 3 3h28c1.6568542 0 3-1.3431458 3-3v-42c0-1.65685425-1.3431458-3-3-3zm-18.7 19.722c-1.9521229-2.4559783-1.6826206-6.0012189.6183223-8.1338873 2.300943-2.1326685 5.8564124-2.1326685 8.1573554 0 2.3009429 2.1326684 2.5704452 5.677909.6183223 8.1338873 2.9490944 2.5681016 4.0585182 6.6611255 2.81 10.367-.447 1.325-8.348 3.2-14.362.634l-.023-.008c-.026-.011-.056-.019-.082-.03s-.035-.028-.055-.038c-.18848238-.0970423-.34015701-.2529301-.432-.444-.01758141-.0298153-.03360298-.0605233-.048-.092-1.26292857-3.7098989-.15728481-7.8151644 2.798-10.389zm1.7 25.278h-5c-.55228475 0-1-.4477153-1-1s.44771525-1 1-1h5c.5522847 0 1 .4477153 1 1s-.4477153 1-1 1zm11 0h-5c-.5522847 0-1-.4477153-1-1s.4477153-1 1-1h5c.5522847 0 1 .4477153 1 1s-.4477153 1-1 1zm7-6c0 1.1045695-.8954305 2-2 2h-26c-1.1045695 0-2-.8954305-2-2v-3c0-1.1045695.8954305-2 2-2h26c1.1045695 0 2 .8954305 2 2z"/></g></svg>