<svg height="512" viewBox="0 0 56 56" width="512" xmlns="http://www.w3.org/2000/svg"><g id="010---Contacts"><path id="Shape" d="m10.279 2h35.442l.25-.629c.1225903-.30682236.0857125-.65439328-.0985323-.92865995-.1842447-.27426668-.492071-.43982194-.8224677-.44234005h-34.1c-.3317488-.00243087-.6422036.16314503-.825.44-.356.528-.081.97.154 1.56z"/><path id="Shape" d="m50.181 23c0 1.3-.001 1.372 0 0z"/><path id="Shape" d="m7.677 7h40.646l.652-1.629c.1231031-.3081337.0853464-.65726373-.1007865-.93195502s-.4963992-.43916681-.8282135-.43904498h-40.092c-.33181432-.00012183-.64208059.16435369-.82821349.43904498s-.22388965.62382132-.10078651.93195502z"/><path id="Shape" d="m50.78 20h-18.78v3h18.181z"/><path id="Shape" d="m5.909 41-1.716-19.74c-.07287829-.8377393.20918697-1.6676074.77747493-2.2874196.56828797-.6198122 1.37062174-.9726611 2.21152507-.9725804h16.818c1.6568542 0 3 1.3431458 3 3v20h25.646l2.434-23.676c.0919757-.8466425-.1802155-1.6924785-.7486982-2.3265847-.5684826-.6341061-1.3796783-.9967191-2.2313018-.9974153h-49.1c-.85100202.0002813-1.66184234.3619726-2.2305951.9950009-.56875275.6330283-.84189483 1.4778218-.7514049 2.3239991l2.433 23.681zm43.091-6h-4c-.5522847 0-1-.4477153-1-1s.4477153-1 1-1h4c.5522847 0 1 .4477153 1 1s-.4477153 1-1 1zm1-5h-13c-.5522847 0-1-.4477153-1-1s.4477153-1 1-1h13c.5522847 0 1 .4477153 1 1s-.4477153 1-1 1zm-20-10c0-1.1045695.8954305-2 2-2h18.78c.599322.0000023 1.1670553.2687718 1.5469272.7323279s.5318396 1.0730346.4140728 1.6606721l-.6 3c-.1893235.9328399-1.0081461 1.6041909-1.96 1.607h-18.181c-1.1045695 0-2-.8954305-2-2zm1 8h2c.5522847 0 1 .4477153 1 1s-.4477153 1-1 1h-2c-.5522847 0-1-.4477153-1-1s.4477153-1 1-1zm0 5h10c.5522847 0 1 .4477153 1 1s-.4477153 1-1 1h-10c-.5522847 0-1-.4477153-1-1s.4477153-1 1-1z"/><path id="Shape" d="m25 39.438v-18.438c0-.5522847-.4477153-1-1-1h-16.818c-.28081213-.0010405-.54912175.1160375-.73933938.3226138-.19021764.2065764-.28481256.4836127-.26066062.7633862 1.864 21.449 1.673 19.914 1.846 19.914.11168491-1.0729454.74862909-2.0204936 1.7-2.529l2.884-1.826c.2552954-.1114754.4121504-.3722318.391-.65l-.133-1.185c-.8748245-.7640992-1.570055-1.7120166-2.036-2.776-.4192388-.2896228-.6949911-.7443594-.758-1.25l-.171-1.527c-.03542579-.4025023.0884459-.8028413.345-1.115l-.214-1.906c-.064-2.251 1.523-4.236 4.864-4.236 4.607 0 5.464 3.5 5.547 3.9l.239 2.078c.63.58.568.9.756 2.583.0559955.5052009-.1292674 1.0072634-.5 1.355-.2227357 1.0160047-.7015686 1.9581798-1.391 2.737l.125 1.118c.0773078.3548948.3137494.6544122.641.812 4.135 2.187 4.105 2.202 4.683 2.855z"/><path id="Shape" d="m4.028 12h47.944l.129-.513c.1501008-.5978761.016115-1.2315647-.3631476-1.71751324-.3792627-.48594854-.9614224-.76985609-1.5778524-.76948676h-43.16c-1.192 0-2.037-.123-2.732.766-.38297147.4866957-.51887026 1.123352-.368 1.724z"/><path id="Shape" d="m12 47h43.324l.383-2.868c.0380408-.2856665-.0490103-.5738566-.2388377-.7906928-.1898275-.2168363-.4639741-.3412352-.7521623-.3413072h-53.167c-.37478968-.058699-.75467132.0689233-1.018.342-.19111358.215819-.2780914.5045269-.238.79l.383 2.868h6.324c.55228475 0 1 .4477153 1 1s-.44771525 1-1 1h-6.058l.934 7h52.248l.934-7h-43.058c-.5522847 0-1-.4477153-1-1s.4477153-1 1-1z"/><path id="Shape" d="m13.644 38.359c-2.177 1.308-2.881 1.827-2.958 1.868-.3074553.1609792-.5362936.4399887-.634.773h13.637c-.363-.562-.412-.593-4.3-2.648-.9163168-.4623791-1.5504499-1.3415859-1.7-2.357-.181-1.625-.3-1.936.082-2.356.6910806-.6321874 1.1384025-1.4868413 1.264-2.415.0442221-.2565785.1852581-.4863885.394-.642l-.128-1.155c-.656-.609-.5-.29-.83-3.211-.061-.295-.609-2.216-3.571-2.216-.8451598-.0781363-1.6866001.1838691-2.338.728-.3423491.3749101-.5321121.8642988-.532 1.372.3 2.62.415 2.549-.111 3.161l.132 1.18.186.133c.638.455.115 1.117 2.244 2.984.1877302.1643867.307219.3930205.335.641l.176 1.569c.1082144 1.0553283-.4217043 2.0738885-1.348 2.591z"/></g></svg>