<svg height="512" viewBox="0 0 56 50" width="512" xmlns="http://www.w3.org/2000/svg"><g id="030---Medical-File"><path id="Shape" d="m16 25v6h7c1.1045695 0 2 .8954305 2 2v7h6v-7c0-1.1045695.8954305-2 2-2h7v-6h-7c-1.1045695 0-2-.8954305-2-2v-7h-6v7c0 1.1045695-.8954305 2-2 2z"/><path id="Shape" d="m54 0h-36.556c.7 1.2.556 2.034.556 4 0 1.1045695.8954305 2 2 2h36v-4c0-1.1045695-.8954305-2-2-2zm-30.293 2.707c-2.18 2.18-2.168 2.293-2.707 2.293-.4043959-.00008635-.7689341-.2437275-.923678-.61734544s-.0692299-.80366031.216678-1.08965456l2-2c.2510745-.25995658.6228779-.3642126.9725073-.27269716.3496295.09151544.6226744.3645604.7141899.71418984.0915154.34962943-.0127406.72143285-.2726972.97250732zm5 0c-2.18 2.18-2.168 2.293-2.707 2.293-.4043959-.00008635-.7689341-.2437275-.923678-.61734544s-.0692299-.80366031.216678-1.08965456l2-2c.2510745-.25995658.6228779-.3642126.9725073-.27269716.3496295.09151544.6226744.3645604.7141899.71418984.0915154.34962943-.0127406.72143285-.2726972.97250732zm5 0c-2.18 2.18-2.168 2.293-2.707 2.293-.4043959-.00008635-.7689341-.2437275-.923678-.61734544s-.0692299-.80366031.216678-1.08965456l2-2c.2510745-.25995658.6228779-.3642126.9725073-.27269716.3496295.09151544.6226744.3645604.7141899.71418984.0915154.34962943-.0127406.72143285-.2726972.97250732zm5 0c-2.18 2.18-2.168 2.293-2.707 2.293-.4043959-.00008635-.7689341-.2437275-.923678-.61734544s-.0692299-.80366031.216678-1.08965456l2-2c.2510745-.25995658.6228779-.3642126.9725073-.27269716.3496295.09151544.6226744.3645604.7141899.71418984.0915154.34962943-.0127406.72143285-.2726972.97250732zm5 0c-2.18 2.18-2.168 2.293-2.707 2.293-.4043959-.00008635-.7689341-.2437275-.923678-.61734544s-.0692299-.80366031.216678-1.08965456l2-2c.2510745-.25995658.6228779-.3642126.9725073-.27269716.3496295.09151544.6226744.3645604.7141899.71418984.0915154.34962943-.0127406.72143285-.2726972.97250732zm5 0c-2.18 2.18-2.168 2.293-2.707 2.293-.4043959-.00008635-.7689341-.2437275-.923678-.61734544s-.0692299-.80366031.216678-1.08965456l2-2c.2510745-.25995658.6228779-.3642126.9725073-.27269716.3496295.09151544.6226744.3645604.7141899.71418984.0915154.34962943-.0127406.72143285-.2726972.97250732zm5 0c-2.18 2.18-2.168 2.293-2.707 2.293-.4043959-.00008635-.7689341-.2437275-.923678-.61734544s-.0692299-.80366031.216678-1.08965456l2-2c.2510745-.25995658.6228779-.3642126.9725073-.27269716.3496295.09151544.6226744.3645604.7141899.71418984.0915154.34962943-.0127406.72143285-.2726972.97250732z"/><path id="Shape" d="m0 8v40c0 1.1045695.8954305 2 2 2h52c1.1045695 0 2-.8954305 2-2v-40zm4 39c0 .5522847-.44771525 1-1 1s-1-.4477153-1-1v-30c0-.5522847.44771525-1 1-1s1 .4477153 1 1zm0-34c0 .5522847-.44771525 1-1 1s-1-.4477153-1-1v-2c0-.5522847.44771525-1 1-1s1 .4477153 1 1zm48-2c0-.5522847.4477153-1 1-1s1 .4477153 1 1v30c0 .5522847-.4477153 1-1 1s-1-.4477153-1-1zm0 34c0-.5522847.4477153-1 1-1s1 .4477153 1 1v2c0 .5522847-.4477153 1-1 1s-1-.4477153-1-1zm-27-31h6c1.1045695 0 2 .8954305 2 2v7h7c1.1045695 0 2 .8954305 2 2v6c0 1.1045695-.8954305 2-2 2h-7v7c0 1.1045695-.8954305 2-2 2h-6c-1.1045695 0-2-.8954305-2-2v-7h-7c-1.1045695 0-2-.8954305-2-2v-6c0-1.1045695.8954305-2 2-2h7v-7c0-1.1045695.8954305-2 2-2z"/><path id="Shape" d="m16 2c0-1.1045695-.8954305-2-2-2h-12c-1.1045695 0-2 .8954305-2 2v4h16.556c-.697-1.2-.556-2.034-.556-4z"/></g></svg>