<?xml version="1.0" encoding="iso-8859-1"?>
<!-- Generator: Adobe Illustrator 16.0.0, SVG Export Plug-In . SVG Version: 6.00 Build 0)  -->
<!DOCTYPE svg PUBLIC "-//W3C//DTD SVG 1.1//EN" "http://www.w3.org/Graphics/SVG/1.1/DTD/svg11.dtd">
<svg version="1.1" id="Capa_1" xmlns="http://www.w3.org/2000/svg" xmlns:xlink="http://www.w3.org/1999/xlink" x="0px" y="0px"
	 width="497.25px" height="497.25px" viewBox="0 0 497.25 497.25" style="enable-background:new 0 0 497.25 497.25;"
	 xml:space="preserve">
<g>
	<g>
		<path d="M439.875,288.787V47.812c0-21.038-17.213-38.25-38.25-38.25H38.25C17.212,9.562,0,26.775,0,47.812v363.375
			c0,21.037,17.212,38.25,38.25,38.25h273.487c19.125,22.95,47.812,38.25,80.325,38.25c57.375,0,105.188-47.812,105.188-105.188
			C497.25,342.338,474.3,306,439.875,288.787z M19.125,47.812c0-11.475,7.65-19.125,19.125-19.125h363.375
			c11.475,0,19.125,7.65,19.125,19.125v57.375H19.125V47.812z M38.25,430.312c-11.475,0-19.125-7.65-19.125-19.125V124.312H420.75
			v156.825c-9.562-1.913-19.125-3.825-28.688-3.825c-57.375,0-105.188,47.812-105.188,105.188c0,17.213,3.825,32.513,11.475,47.812
			H38.25z M392.062,468.562c-47.812,0-86.062-38.25-86.062-86.062s38.25-86.062,86.062-86.062s86.062,38.25,86.062,86.062
			S439.875,468.562,392.062,468.562z"/>
		<polygon points="401.625,372.938 401.625,315.562 382.5,315.562 382.5,372.938 325.125,372.938 325.125,392.062 382.5,392.062 
			382.5,449.438 401.625,449.438 401.625,392.062 459,392.062 459,372.938 		"/>
	</g>
</g>
<g>
</g>
<g>
</g>
<g>
</g>
<g>
</g>
<g>
</g>
<g>
</g>
<g>
</g>
<g>
</g>
<g>
</g>
<g>
</g>
<g>
</g>
<g>
</g>
<g>
</g>
<g>
</g>
<g>
</g>
</svg>
