<svg height="512" viewBox="0 0 56 56" width="512" xmlns="http://www.w3.org/2000/svg"><g id="023---Sign-Form"><path id="Shape" d="m34.094 39.818 9.395-17.747-1.768-.936-9.643 18.218c.6871003.0801315 1.3632182.2360813 2.016.465z"/><path id="Shape" d="m48.9 20.407-5.3-2.807-.936 1.768 5.3 2.807z"/><path id="Shape" d="m31.426 41.272-.765 7.168 5.5-4.663c-1.617-1.692-1.842-2.023-4.735-2.505z"/><path id="Shape" d="m51 40h-10.214l-2.286 4.322c-.15.282-1.584 1.442-6.544 5.644-.6235769.5293361-1.5066347.6256108-2.2296268.2430834-.7229922-.3825274-1.1401872-1.1667519-1.0533732-1.9800834 1.473-13.79.5-4.725.88-8.229h-24.553v12h46zm-42 10h-2c-.55228475 0-1-.4477153-1-1s.44771525-1 1-1h2c.55228475 0 1 .4477153 1 1s-.44771525 1-1 1zm6 0h-2c-.5522847 0-1-.4477153-1-1s.4477153-1 1-1h2c.5522847 0 1 .4477153 1 1s-.4477153 1-1 1zm6 0h-2c-.5522847 0-1-.4477153-1-1s.4477153-1 1-1h2c.5522847 0 1 .4477153 1 1s-.4477153 1-1 1zm5 0h-1c-.5522847 0-1-.4477153-1-1s.4477153-1 1-1h1c.5522847 0 1 .4477153 1 1s-.4477153 1-1 1zm11 0h-1c-.5522847 0-1-.4477153-1-1s.4477153-1 1-1h1c.5522847 0 1 .4477153 1 1s-.4477153 1-1 1zm6 0h-2c-.5522847 0-1-.4477153-1-1s.4477153-1 1-1h2c.5522847 0 1 .4477153 1 1s-.4477153 1-1 1zm6 0h-2c-.5522847 0-1-.4477153-1-1s.4477153-1 1-1h2c.5522847 0 1 .4477153 1 1s-.4477153 1-1 1z"/><path id="Shape" d="m35.861 40.754c.5569396.4108461 1.0664106.882417 1.519 1.406 12.9-24.377 7.858-14.843 9.644-18.218l-1.768-.935z"/><path id="Shape" d="m50.767 16.872c.5145134-.9754587.1423131-2.1833204-.832-2.7l-1.768-.936c-.9754587-.5145134-2.1833204-.1423131-2.7.832l-.935 1.768 5.3 2.807z"/><path id="Rectangle-path" d="m5 13h28.001v4h-28.001z"/><path id="Shape" d="m0 53c0 1.6568542 1.34314575 3 3 3h50c1.6568542 0 3-1.3431458 3-3v-45h-56zm3-40c0-1.1045695.8954305-2 2-2h28c1.1045695 0 2 .8954305 2 2v4c0 1.1045695-.8954305 2-2 2h-28c-1.1045695 0-2-.8954305-2-2zm2 18c-.55228475 0-1-.4477153-1-1s.44771525-1 1-1h24c.5522847 0 1 .4477153 1 1s-.4477153 1-1 1zm23 3c0 .5522847-.4477153 1-1 1h-22c-.55228475 0-1-.4477153-1-1s.44771525-1 1-1h22c.5522847 0 1 .4477153 1 1zm-23-7c-.55228475 0-1-.4477153-1-1s.44771525-1 1-1h26c.5522847 0 1 .4477153 1 1s-.4477153 1-1 1zm0-4c-.55228475 0-1-.4477153-1-1s.44771525-1 1-1h29c.5522847 0 1 .4477153 1 1s-.4477153 1-1 1zm-2 17c0-1.1045695.8954305-2 2-2h25.53c13.195-24.924-15.223 28.774 13.17-24.871 1.0333592-1.9486261 3.4490826-2.6930268 5.4-1.664l1.768.936c1.9504348 1.0353936 2.6948002 3.4541336 1.664 5.407-3.016 5.7-2.353 4.443-3.275 6.186l-7.412 14.006h9.155c1.1045695 0 2 .8954305 2 2v12c0 1.1045695-.8954305 2-2 2h-46c-1.1045695 0-2-.8954305-2-2z"/><path id="Shape" d="m53 0h-50c-1.65685425 0-3 1.34314575-3 3v3h56v-3c0-1.65685425-1.3431458-3-3-3zm-50 4c-.55228475 0-1-.44771525-1-1s.44771525-1 1-1 1 .44771525 1 1-.44771525 1-1 1zm4 0c-.55228475 0-1-.44771525-1-1s.44771525-1 1-1 1 .44771525 1 1-.44771525 1-1 1zm4 0c-.5522847 0-1-.44771525-1-1s.4477153-1 1-1 1 .44771525 1 1-.4477153 1-1 1zm36 0h-2c-.5522847 0-1-.44771525-1-1s.4477153-1 1-1h2c.5522847 0 1 .44771525 1 1s-.4477153 1-1 1zm6 0c0 .55228475-.4477153 1-1 1s-1-.44771525-1-1c-.5522847 0-1-.44771525-1-1s.4477153-1 1-1c0-.55228475.4477153-1 1-1s1 .44771525 1 1c.5522847.00000001 1 .44771526 1 1s-.4477153.99999999-1 1z"/></g></svg>