<svg height="448pt" viewBox="0 0 448 447" width="448pt" xmlns="http://www.w3.org/2000/svg"><path d="m304 182.78125c0-13.257812-10.746094-24-24-24h-112c-13.253906 0-24 10.742188-24 24v8h160zm-72 0h-16c-4.417969 0-8-3.582031-8-8s3.582031-8 8-8h16c4.417969 0 8 3.582031 8 8s-3.582031 8-8 8zm0 0"/><path d="m320 182.78125v168h80v-180.914062l-176-121.367188-176 121.367188v180.914062h80v-168c.027344-22.082031 17.917969-39.976562 40-40h112c22.082031.023438 39.972656 17.917969 40 40zm0 0"/><path d="m304 414.78125h-160v8c0 13.253906 10.746094 24 24 24h112c13.253906 0 24-10.746094 24-24zm-64 24h-32c-4.417969 0-8-3.582031-8-8s3.582031-8 8-8h32c4.417969 0 8 3.582031 8 8s-3.582031 8-8 8zm0 0"/><path d="m201.078125 286.78125h6.921875c4.417969 0 8 3.582031 8 8v56h16v-56c0-4.417969 3.582031-8 8-8h6.921875l-22.921875-27.503906zm0 0"/><path d="m304 206.78125h-160v192h160zm-32.761719 91.390625c-1.3125 2.808594-4.136719 4.605469-7.238281 4.609375h-16v56c0 4.417969-3.582031 8-8 8h-32c-4.417969 0-8-3.582031-8-8v-56h-16c-3.105469 0-5.929688-1.792969-7.25-4.605469-1.316406-2.808593-.890625-6.128906 1.097656-8.515625l40-48c1.570313-1.742187 3.808594-2.734375 6.152344-2.734375s4.582031.992188 6.152344 2.734375l40 48c1.980468 2.386719 2.40625 5.703125 1.085937 8.511719zm0 0"/><path d="m14.863281 173.285156 204.601563-141.089844c2.730468-1.878906 6.339844-1.878906 9.070312 0l204.601563 141.089844 12.136719-20.183594-221.273438-152.601562-221.273438 152.601562zm0 0"/><path d="m0 366.78125h128v16h-128zm0 0"/><path d="m320 366.78125h128v16h-128zm0 0"/><path d="m80 30.78125v49.589844l32-22.0625v-27.527344zm0 0"/></svg>