<?xml version="1.0" encoding="iso-8859-1"?>
<!-- Generator: Adobe Illustrator 16.0.0, SVG Export Plug-In . SVG Version: 6.00 Build 0)  -->
<!DOCTYPE svg PUBLIC "-//W3C//DTD SVG 1.1//EN" "http://www.w3.org/Graphics/SVG/1.1/DTD/svg11.dtd">
<svg version="1.1" id="Capa_1" xmlns="http://www.w3.org/2000/svg" xmlns:xlink="http://www.w3.org/1999/xlink" x="0px" y="0px"
	 width="439.875px" height="439.875px" viewBox="0 0 439.875 439.875" style="enable-background:new 0 0 439.875 439.875;"
	 xml:space="preserve">
<g>
	<g>
		<path d="M114.75,153H57.375v57.375h57.375V153z M95.625,191.25H76.5v-19.125h19.125V191.25z"/>
		<rect x="153" y="325.125" width="114.75" height="19.125"/>
		<rect x="153" y="172.125" width="229.5" height="19.125"/>
		<rect x="153" y="248.625" width="133.875" height="19.125"/>
		<path d="M114.75,306H57.375v57.375h57.375V306z M95.625,344.25H76.5v-19.125h19.125V344.25z"/>
		<path d="M401.625,0H38.25C17.212,0,0,17.212,0,38.25v363.375c0,21.037,17.212,38.25,38.25,38.25h277.312h9.562L439.875,306v-9.562
			V38.25C439.875,17.212,422.662,0,401.625,0z M325.125,411.188v-86.062c0-11.475,9.562-19.125,19.125-19.125h70.763
			L325.125,411.188z M420.75,286.875h-76.5c-21.037,0-38.25,17.213-38.25,38.25v95.625H38.25c-11.475,0-19.125-7.65-19.125-19.125
			V114.75H420.75V286.875z M420.75,95.625H19.125V38.25c0-11.475,7.65-19.125,19.125-19.125h363.375
			c11.475,0,19.125,7.65,19.125,19.125V95.625z"/>
		<path d="M114.75,229.5H57.375v57.375h57.375V229.5z M95.625,267.75H76.5v-19.125h19.125V267.75z"/>
	</g>
</g>
<g>
</g>
<g>
</g>
<g>
</g>
<g>
</g>
<g>
</g>
<g>
</g>
<g>
</g>
<g>
</g>
<g>
</g>
<g>
</g>
<g>
</g>
<g>
</g>
<g>
</g>
<g>
</g>
<g>
</g>
</svg>
